<svg width="1424" height="663" viewBox="0 0 1424 663" fill="none" xmlns="http://www.w3.org/2000/svg">
<mask id="path-1-inside-1_152_76" fill="white">
<path d="M465.689 112.863H0V-4.4924H915.986C905.984 35.5101 893.092 74.7317 877.412 112.863C864.901 143.518 850.576 173.399 834.513 202.347C829.968 210.605 825.356 218.71 820.523 226.681C795.039 269.45 765.879 309.912 733.373 347.606C728.119 353.8 722.797 359.841 717.322 365.814C716.19 367.1 714.991 368.302 713.774 369.588C680.698 405.647 644.551 438.753 605.741 468.532C604.254 469.818 602.699 470.951 601.128 472.085C599.557 473.219 598.087 474.437 596.583 475.571C595.383 476.502 594.251 477.263 593.035 478.211C554.95 506.534 514.563 531.61 472.296 553.176C445.938 566.732 418.864 578.844 391.194 589.457C388.069 590.743 384.943 591.877 381.817 593.011C371.803 596.79 361.694 600.349 351.489 603.689C314.329 616.019 276.356 625.739 237.846 632.778V347.606H117.259V759.474C118.408 759.474 119.607 759.474 120.824 759.321C160.052 757.777 199.153 753.872 237.913 747.628C276.267 741.452 314.216 732.975 351.556 722.245C364.347 718.539 376.985 714.63 389.488 710.4C417.648 701.013 445.245 690.369 472.279 678.467C513.962 660.127 554.308 638.877 593.018 614.874C594.234 614.163 595.434 613.368 596.566 612.657C606.805 606.261 616.841 599.712 626.759 593.028C628.449 591.826 630.139 590.608 631.946 589.474C660.303 569.947 687.612 548.934 713.757 526.524C714.974 525.525 716.173 524.459 717.305 523.461C736.342 507.024 754.668 489.904 772.285 472.102C773.417 470.968 774.634 469.767 775.766 468.549C796.289 447.633 815.866 425.798 834.496 403.043C849.196 385.106 863.276 366.632 876.737 347.623C903.286 309.963 927.163 270.483 948.19 229.473C948.68 228.542 949.102 227.628 949.609 226.698C968.294 189.836 984.615 151.82 998.473 112.879C1012.15 74.5172 1023.37 35.3191 1032.06 -4.47552C1032.35 -5.69391 1032.64 -6.82767 1032.84 -8.04605C1040.94 -45.5977 1046.8 -83.5986 1050.39 -121.847C1050.53 -123.066 1050.6 -124.267 1050.75 -125.401H0V-477.533H1398.3C1405.68 -440.119 1411.58 -402.196 1415.77 -363.715C1420.16 -323.965 1422.87 -283.555 1423.65 -242.79C1423.93 -233.33 1424 -223.871 1424 -214.344C1424 -184.459 1423.03 -154.817 1421.09 -125.418C1421.09 -124.216 1420.96 -123.083 1420.89 -121.864C1418.26 -83.5074 1414.07 -45.5737 1408.32 -8.06299C1408.1 -6.8446 1407.95 -5.6431 1407.75 -4.4924C1401.49 35.252 1393.56 74.3703 1383.96 112.863C1374.35 151.355 1363.06 189.294 1350.08 226.681C1335.81 267.937 1319.59 308.245 1301.42 347.606C1282.41 388.962 1261.31 429.323 1238.21 468.532C1237.5 469.665 1236.79 470.884 1236.08 472.085C1221.44 496.848 1205.96 521.103 1189.63 544.85C1179.33 560.013 1168.69 574.904 1157.73 589.525L1155.05 593.078C1128.01 629.066 1099.29 663.593 1068.88 696.659C1064.62 701.278 1060.35 705.898 1056.02 710.45C1021.98 746.458 985.967 780.536 948.139 812.524C943.442 816.433 938.762 820.427 934.065 824.268C902.109 850.644 868.919 875.514 834.496 898.878C810.707 915.101 786.371 930.539 761.488 945.194C746.924 953.79 732.225 962.116 717.305 970.086C716.106 970.729 714.974 971.372 713.757 972.015C675.752 992.322 636.689 1010.86 596.566 1027.64C595.366 1028.13 594.234 1028.64 593.018 1029.13C559.992 1042.79 526.352 1055.12 492.098 1066.12C485.486 1068.25 478.879 1070.32 472.279 1072.31C432.787 1084.33 392.541 1094.54 351.539 1102.96C314.182 1110.57 276.318 1116.7 237.896 1121.1C199.475 1125.5 160.175 1128.43 120.722 1129.56C119.506 1129.64 118.306 1129.64 117.157 1129.71C105.33 1130 93.5028 1130.14 81.6756 1130.14C54.2589 1130.14 27.0337 1129.31 0 1127.65V1006.44C27.0337 1008.21 54.2589 1009.11 81.6756 1009.14C93.5028 1009.14 105.33 1009.01 117.157 1008.57C118.374 1008.57 119.506 1008.57 120.722 1008.57C160.282 1007.37 199.34 1004.29 237.896 999.328C276.318 994.42 314.25 987.651 351.539 979.258C392.346 970.052 432.647 958.727 472.279 945.329L472.633 945.194C513.594 931.363 553.78 915.332 593.018 897.169C594.15 896.678 595.366 896.103 596.566 895.477C636.747 876.774 675.869 855.872 713.757 832.865C714.974 832.154 716.106 831.443 717.305 830.733L727.815 824.268C764.677 801.186 800.288 776.157 834.496 749.286C850.548 736.696 866.244 723.723 881.586 710.366C904.531 690.375 926.715 669.583 948.139 647.991C965.813 630.211 982.951 611.879 999.554 592.994C1000.55 591.86 1001.62 590.659 1002.61 589.44C1025.83 562.771 1047.92 535.131 1068.88 506.522C1077.11 495.24 1085.16 483.784 1093.02 472.153C1093.8 470.952 1094.71 469.818 1095.37 468.599C1121.57 429.714 1145.5 389.337 1167.03 347.674C1174.91 332.534 1182.44 317.22 1189.62 301.73C1201.05 277.182 1211.66 252.188 1221.43 226.748C1235.78 189.689 1248.33 151.749 1259.08 112.93C1269.65 74.5733 1278.41 35.455 1285.35 -4.42474C1285.57 -5.64316 1285.77 -6.77692 1285.93 -7.9953C1292.31 -45.4157 1296.95 -83.3495 1299.85 -121.797C1299.85 -122.947 1299.98 -124.149 1300.05 -125.35C1302.18 -154.75 1303.24 -184.391 1303.24 -214.276C1303.24 -223.803 1303.11 -233.263 1302.89 -242.722C1301.98 -283.549 1299.09 -323.858 1294.24 -363.647H117.259V-242.722H1182.17C1182.39 -233.263 1182.52 -223.803 1182.52 -214.276C1182.52 -184.324 1181.32 -154.744 1178.97 -125.35C1178.97 -124.216 1178.84 -123.015 1178.69 -121.797C1175.52 -83.621 1170.38 -45.636 1163.28 -7.9953C1163.07 -6.77692 1162.85 -5.64316 1162.63 -4.42474C1154.98 35.2003 1145.16 74.3769 1133.24 112.93C1121.27 151.624 1107.17 189.622 1091 226.748C1084.03 242.757 1076.71 258.551 1069.03 274.13C1056.64 299.164 1043.33 323.678 1029.11 347.674C1004.78 388.786 977.782 428.254 948.291 465.824C947.582 466.755 946.872 467.669 946.078 468.599C945.166 469.818 944.236 471.019 943.324 472.153C910.166 513.818 874.062 553.043 835.29 589.525H834.648V590.1C833.584 591.166 832.52 592.08 831.523 593.078C795.614 626.561 757.507 657.598 717.457 685.981C716.258 686.844 715.126 687.673 713.909 688.468C703.265 696.016 692.384 703.343 681.452 710.467C654.046 728.382 625.802 745.05 596.718 760.472C595.518 761.115 594.386 761.758 593.17 762.401C554.05 782.971 513.731 801.167 472.431 816.89C465.757 819.378 459.083 821.865 452.324 824.285C419.309 835.962 385.72 846.154 351.556 854.864C314.097 864.316 276.163 871.767 237.913 877.184C199.068 882.72 159.953 886.166 120.739 887.506C119.59 887.506 118.391 887.642 117.174 887.642C105.347 887.997 93.5197 888.217 81.6924 888.217C54.1969 888.217 26.9717 887.219 0.0168997 885.222V226.681H351.556V482.205C359.802 479.012 367.945 475.667 375.988 472.17C378.759 471.036 381.462 469.835 384.149 468.616C414.544 455.116 443.993 439.574 472.296 422.097C507.872 400.158 541.536 375.251 572.928 347.64C579.687 341.666 586.445 335.625 593.035 329.364C594.251 328.298 595.383 327.147 596.583 325.98C628.436 295.521 657.527 262.291 683.513 226.681C694.18 212.173 704.267 197.304 713.774 182.074C715.058 180.162 716.19 178.317 717.322 176.388C730.008 155.815 741.648 134.613 752.196 112.863H465.689Z"/>
</mask>
<path d="M465.689 112.863H0V-4.4924H915.986C905.984 35.5101 893.092 74.7317 877.412 112.863C864.901 143.518 850.576 173.399 834.513 202.347C829.968 210.605 825.356 218.71 820.523 226.681C795.039 269.45 765.879 309.912 733.373 347.606C728.119 353.8 722.797 359.841 717.322 365.814C716.19 367.1 714.991 368.302 713.774 369.588C680.698 405.647 644.551 438.753 605.741 468.532C604.254 469.818 602.699 470.951 601.128 472.085C599.557 473.219 598.087 474.437 596.583 475.571C595.383 476.502 594.251 477.263 593.035 478.211C554.95 506.534 514.563 531.61 472.296 553.176C445.938 566.732 418.864 578.844 391.194 589.457C388.069 590.743 384.943 591.877 381.817 593.011C371.803 596.79 361.694 600.349 351.489 603.689C314.329 616.019 276.356 625.739 237.846 632.778V347.606H117.259V759.474C118.408 759.474 119.607 759.474 120.824 759.321C160.052 757.777 199.153 753.872 237.913 747.628C276.267 741.452 314.216 732.975 351.556 722.245C364.347 718.539 376.985 714.63 389.488 710.4C417.648 701.013 445.245 690.369 472.279 678.467C513.962 660.127 554.308 638.877 593.018 614.874C594.234 614.163 595.434 613.368 596.566 612.657C606.805 606.261 616.841 599.712 626.759 593.028C628.449 591.826 630.139 590.608 631.946 589.474C660.303 569.947 687.612 548.934 713.757 526.524C714.974 525.525 716.173 524.459 717.305 523.461C736.342 507.024 754.668 489.904 772.285 472.102C773.417 470.968 774.634 469.767 775.766 468.549C796.289 447.633 815.866 425.798 834.496 403.043C849.196 385.106 863.276 366.632 876.737 347.623C903.286 309.963 927.163 270.483 948.19 229.473C948.68 228.542 949.102 227.628 949.609 226.698C968.294 189.836 984.615 151.82 998.473 112.879C1012.15 74.5172 1023.37 35.3191 1032.06 -4.47552C1032.35 -5.69391 1032.64 -6.82767 1032.84 -8.04605C1040.94 -45.5977 1046.8 -83.5986 1050.39 -121.847C1050.53 -123.066 1050.6 -124.267 1050.75 -125.401H0V-477.533H1398.3C1405.68 -440.119 1411.58 -402.196 1415.77 -363.715C1420.16 -323.965 1422.87 -283.555 1423.65 -242.79C1423.93 -233.33 1424 -223.871 1424 -214.344C1424 -184.459 1423.03 -154.817 1421.09 -125.418C1421.09 -124.216 1420.96 -123.083 1420.89 -121.864C1418.26 -83.5074 1414.07 -45.5737 1408.32 -8.06299C1408.1 -6.8446 1407.95 -5.6431 1407.75 -4.4924C1401.49 35.252 1393.56 74.3703 1383.96 112.863C1374.35 151.355 1363.06 189.294 1350.08 226.681C1335.81 267.937 1319.59 308.245 1301.42 347.606C1282.41 388.962 1261.31 429.323 1238.21 468.532C1237.5 469.665 1236.79 470.884 1236.08 472.085C1221.44 496.848 1205.96 521.103 1189.63 544.85C1179.33 560.013 1168.69 574.904 1157.73 589.525L1155.05 593.078C1128.01 629.066 1099.29 663.593 1068.88 696.659C1064.62 701.278 1060.35 705.898 1056.02 710.45C1021.98 746.458 985.967 780.536 948.139 812.524C943.442 816.433 938.762 820.427 934.065 824.268C902.109 850.644 868.919 875.514 834.496 898.878C810.707 915.101 786.371 930.539 761.488 945.194C746.924 953.79 732.225 962.116 717.305 970.086C716.106 970.729 714.974 971.372 713.757 972.015C675.752 992.322 636.689 1010.86 596.566 1027.64C595.366 1028.13 594.234 1028.64 593.018 1029.13C559.992 1042.79 526.352 1055.12 492.098 1066.12C485.486 1068.25 478.879 1070.32 472.279 1072.31C432.787 1084.33 392.541 1094.54 351.539 1102.96C314.182 1110.57 276.318 1116.7 237.896 1121.1C199.475 1125.5 160.175 1128.43 120.722 1129.56C119.506 1129.64 118.306 1129.64 117.157 1129.71C105.33 1130 93.5028 1130.14 81.6756 1130.14C54.2589 1130.14 27.0337 1129.31 0 1127.65V1006.44C27.0337 1008.21 54.2589 1009.11 81.6756 1009.14C93.5028 1009.14 105.33 1009.01 117.157 1008.57C118.374 1008.57 119.506 1008.57 120.722 1008.57C160.282 1007.37 199.34 1004.29 237.896 999.328C276.318 994.42 314.25 987.651 351.539 979.258C392.346 970.052 432.647 958.727 472.279 945.329L472.633 945.194C513.594 931.363 553.78 915.332 593.018 897.169C594.15 896.678 595.366 896.103 596.566 895.477C636.747 876.774 675.869 855.872 713.757 832.865C714.974 832.154 716.106 831.443 717.305 830.733L727.815 824.268C764.677 801.186 800.288 776.157 834.496 749.286C850.548 736.696 866.244 723.723 881.586 710.366C904.531 690.375 926.715 669.583 948.139 647.991C965.813 630.211 982.951 611.879 999.554 592.994C1000.55 591.86 1001.62 590.659 1002.61 589.44C1025.83 562.771 1047.92 535.131 1068.88 506.522C1077.11 495.24 1085.16 483.784 1093.02 472.153C1093.8 470.952 1094.71 469.818 1095.37 468.599C1121.57 429.714 1145.5 389.337 1167.03 347.674C1174.91 332.534 1182.44 317.22 1189.62 301.73C1201.05 277.182 1211.66 252.188 1221.43 226.748C1235.78 189.689 1248.33 151.749 1259.08 112.93C1269.65 74.5733 1278.41 35.455 1285.35 -4.42474C1285.57 -5.64316 1285.77 -6.77692 1285.93 -7.9953C1292.31 -45.4157 1296.95 -83.3495 1299.85 -121.797C1299.85 -122.947 1299.98 -124.149 1300.05 -125.35C1302.18 -154.75 1303.24 -184.391 1303.24 -214.276C1303.24 -223.803 1303.11 -233.263 1302.89 -242.722C1301.98 -283.549 1299.09 -323.858 1294.24 -363.647H117.259V-242.722H1182.17C1182.39 -233.263 1182.52 -223.803 1182.52 -214.276C1182.52 -184.324 1181.32 -154.744 1178.97 -125.35C1178.97 -124.216 1178.84 -123.015 1178.69 -121.797C1175.52 -83.621 1170.38 -45.636 1163.28 -7.9953C1163.07 -6.77692 1162.85 -5.64316 1162.63 -4.42474C1154.98 35.2003 1145.16 74.3769 1133.24 112.93C1121.27 151.624 1107.17 189.622 1091 226.748C1084.03 242.757 1076.71 258.551 1069.03 274.13C1056.64 299.164 1043.33 323.678 1029.11 347.674C1004.78 388.786 977.782 428.254 948.291 465.824C947.582 466.755 946.872 467.669 946.078 468.599C945.166 469.818 944.236 471.019 943.324 472.153C910.166 513.818 874.062 553.043 835.29 589.525H834.648V590.1C833.584 591.166 832.52 592.08 831.523 593.078C795.614 626.561 757.507 657.598 717.457 685.981C716.258 686.844 715.126 687.673 713.909 688.468C703.265 696.016 692.384 703.343 681.452 710.467C654.046 728.382 625.802 745.05 596.718 760.472C595.518 761.115 594.386 761.758 593.17 762.401C554.05 782.971 513.731 801.167 472.431 816.89C465.757 819.378 459.083 821.865 452.324 824.285C419.309 835.962 385.72 846.154 351.556 854.864C314.097 864.316 276.163 871.767 237.913 877.184C199.068 882.72 159.953 886.166 120.739 887.506C119.59 887.506 118.391 887.642 117.174 887.642C105.347 887.997 93.5197 888.217 81.6924 888.217C54.1969 888.217 26.9717 887.219 0.0168997 885.222V226.681H351.556V482.205C359.802 479.012 367.945 475.667 375.988 472.17C378.759 471.036 381.462 469.835 384.149 468.616C414.544 455.116 443.993 439.574 472.296 422.097C507.872 400.158 541.536 375.251 572.928 347.64C579.687 341.666 586.445 335.625 593.035 329.364C594.251 328.298 595.383 327.147 596.583 325.98C628.436 295.521 657.527 262.291 683.513 226.681C694.18 212.173 704.267 197.304 713.774 182.074C715.058 180.162 716.19 178.317 717.322 176.388C730.008 155.815 741.648 134.613 752.196 112.863H465.689Z" stroke="white" stroke-opacity="0.08" stroke-width="2" mask="url(#path-1-inside-1_152_76)"/>
</svg>
