<svg width="55" height="55" viewBox="0 0 55 55" fill="none" xmlns="http://www.w3.org/2000/svg">
<path d="M45.8337 25.2083V38.9583M34.3753 43.5416V50.4166M20.6253 43.5416V50.4166M9.16699 25.2083V38.9583M22.917 9.16665L19.4795 4.58331M32.0837 9.16665L35.5212 4.58331M14.8962 22.9166H40.1045M14.8962 21.7708C14.8962 18.428 16.2241 15.2221 18.5878 12.8583C20.9516 10.4946 24.1575 9.16665 27.5003 9.16665C30.8432 9.16665 34.0491 10.4946 36.4128 12.8583C38.7766 15.2221 40.1045 18.428 40.1045 21.7708V36.6666C40.1045 39.9071 40.1045 41.5273 39.0962 42.5333C38.0901 43.5416 36.4699 43.5416 33.2295 43.5416H21.7712C18.5307 43.5416 16.9105 43.5416 15.9045 42.5333C14.8962 41.5273 14.8962 39.9071 14.8962 36.6666V21.7708Z" stroke="#006FFF" stroke-width="3.5" stroke-linecap="round" stroke-linejoin="round"/>
</svg>
