<svg width="19" height="18" viewBox="0 0 19 18" fill="none" xmlns="http://www.w3.org/2000/svg">
<path d="M16.1636 9.81251H1.0625C0.847012 9.81251 0.640349 9.72691 0.487976 9.57453C0.335603 9.42216 0.25 9.2155 0.25 9.00001C0.25 8.78452 0.335603 8.57786 0.487976 8.42549C0.640349 8.27311 0.847012 8.18751 1.0625 8.18751H16.1636L10.2372 2.26276C10.0847 2.1102 9.99897 1.90327 9.99897 1.68751C9.99897 1.47175 10.0847 1.26483 10.2372 1.11226C10.3898 0.959696 10.5967 0.873985 10.8125 0.873985C11.0283 0.873985 11.2352 0.959696 11.3878 1.11226L18.7003 8.42476C18.7759 8.50024 18.8359 8.5899 18.8769 8.68861C18.9179 8.78732 18.939 8.89314 18.939 9.00001C18.939 9.10688 18.9179 9.2127 18.8769 9.31142C18.8359 9.41013 18.7759 9.49979 18.7003 9.57526L11.3878 16.8878C11.2352 17.0403 11.0283 17.126 10.8125 17.126C10.5967 17.126 10.3898 17.0403 10.2372 16.8878C10.0847 16.7352 9.99897 16.5283 9.99897 16.3125C9.99897 16.0968 10.0847 15.8898 10.2372 15.7373L16.1636 9.81251Z" fill="white"/>
</svg>
