<svg width="54" height="54" viewBox="0 0 54 54" fill="none" xmlns="http://www.w3.org/2000/svg">
<path d="M45.5131 20.385C45.0701 20.385 44.6452 20.2092 44.3317 19.8962C44.0183 19.5831 43.8419 19.1585 43.8413 18.7155V14.6002C43.8416 14.0154 43.7265 13.4363 43.5027 12.8961C43.2788 12.3558 42.9505 11.865 42.5367 11.4518C42.1229 11.0386 41.6316 10.7111 41.091 10.4881C40.5504 10.265 39.9711 10.1508 39.3863 10.152H33.1943C32.7517 10.152 32.3272 9.97649 32.0138 9.66395C31.7004 9.35141 31.5237 8.92735 31.5225 8.48475C31.5223 8.26553 31.5652 8.04841 31.6491 7.84585C31.7329 7.64329 31.8559 7.45927 32.011 7.30437C32.1661 7.14946 32.3503 7.02671 32.553 6.94316C32.7557 6.85961 32.9728 6.81691 33.192 6.8175H39.3863C41.4677 6.8283 43.461 7.65846 44.9348 9.12825C46.4071 10.598 47.2392 12.5897 47.25 14.67V18.7852C47.2267 19.2259 47.032 19.64 46.7074 19.9389C46.3828 20.2379 45.9541 20.398 45.5131 20.385ZM39.3863 47.1375H33.1943C32.8651 47.1363 32.5436 47.0379 32.2701 46.8547C31.9966 46.6715 31.7832 46.4116 31.6568 46.1076C31.5304 45.8036 31.4966 45.4691 31.5596 45.146C31.6225 44.8229 31.7795 44.5255 32.0108 44.2912C32.3243 43.9785 32.7492 43.8029 33.192 43.803H39.3863C40.5663 43.8018 41.6977 43.333 42.5328 42.4992C43.3678 41.6655 43.8383 40.5348 43.8413 39.3547V35.2845C43.8399 34.9533 43.9372 34.6293 44.1207 34.3536C44.3042 34.0779 44.5657 33.8632 44.8718 33.7367C45.1778 33.6102 45.5146 33.5777 45.8392 33.6434C46.1638 33.7091 46.4615 33.87 46.6943 34.1055C46.8492 34.2603 46.9721 34.4441 47.0559 34.6464C47.1396 34.8487 47.1827 35.0655 47.1825 35.2845V39.3997C47.1699 41.4788 46.3371 43.4688 44.865 44.937C43.3928 46.4065 41.4012 47.2374 39.321 47.25L39.3863 47.1375ZM20.7855 47.1375H14.5913C12.5104 47.1322 10.5162 46.303 9.04505 44.8312C7.57549 43.3605 6.75002 41.3664 6.75005 39.2873V35.2845C6.74756 34.9528 6.84418 34.628 7.02753 34.3516C7.21087 34.0752 7.47258 33.8599 7.7791 33.7332C8.08562 33.6066 8.42299 33.5743 8.74796 33.6407C9.07292 33.707 9.37068 33.8688 9.60305 34.1055C9.75796 34.2603 9.88083 34.4441 9.96461 34.6464C10.0484 34.8487 10.0914 35.0655 10.0913 35.2845V39.3997C10.0907 39.9846 10.2056 40.5639 10.4293 41.1043C10.6531 41.6447 10.9813 42.1356 11.3952 42.5489C11.8091 42.9621 12.3005 43.2896 12.8413 43.5125C13.382 43.7355 13.9614 43.8495 14.5463 43.848H20.7405C21.1828 43.8486 21.6067 44.0244 21.9196 44.3368C22.2325 44.6493 22.4089 45.073 22.41 45.5153C22.4103 45.7345 22.3673 45.9516 22.2835 46.1542C22.1997 46.3567 22.0767 46.5407 21.9216 46.6956C21.7665 46.8505 21.5823 46.9733 21.3796 47.0568C21.1769 47.1404 20.9598 47.1831 20.7405 47.1825L20.7855 47.1375ZM8.4218 20.385C7.97842 20.385 7.55321 20.2089 7.23969 19.8954C6.92618 19.5818 6.75005 19.1566 6.75005 18.7133V14.6002C6.75005 12.5235 7.5758 10.5278 9.04505 9.05625C10.5162 7.58452 12.5104 6.75531 14.5913 6.75H20.7855C21.2278 6.75059 21.6517 6.92637 21.9646 7.23885C22.2775 7.55132 22.4539 7.97504 22.455 8.41725C22.4556 8.63666 22.4129 8.85402 22.3292 9.05684C22.2455 9.25966 22.1225 9.44394 21.9674 9.59909C21.8122 9.75423 21.628 9.87719 21.4251 9.96088C21.2223 10.0446 21.005 10.0873 20.7855 10.0867H14.5913C13.4113 10.0879 12.2799 10.5568 11.4448 11.3905C10.6098 12.2243 10.1393 13.355 10.1363 14.535V18.648C10.1427 18.8758 10.1029 19.1026 10.0193 19.3147C9.93563 19.5267 9.80991 19.7196 9.64969 19.8817C9.48947 20.0438 9.29807 20.1718 9.08703 20.2579C8.87599 20.344 8.6497 20.3865 8.4218 20.3827M37.5368 26.9438C37.5354 29.3884 36.6852 31.7568 35.1315 33.6443C33.5769 35.5351 31.4149 36.8286 29.0137 37.3045C26.6125 37.7804 24.1206 37.4092 21.9623 36.2543C20.3492 35.3966 18.9865 34.1346 18.0077 32.592C17.0289 31.0494 16.4676 29.279 16.3787 27.4542C16.2897 25.6294 16.6763 23.8128 17.5005 22.1824C18.3247 20.5519 19.5582 19.1634 21.0803 18.153C22.3819 17.2852 23.8595 16.7163 25.407 16.4873C26.9545 16.2583 28.5335 16.3748 30.0306 16.8285C31.5277 17.2821 32.9058 18.0617 34.0659 19.1111C35.226 20.1606 36.1394 21.4539 36.7403 22.8983C37.2713 24.1807 37.5435 25.5555 37.5368 26.9438Z" fill="#006FFF"/>
</svg>
