<svg width="46" height="46" viewBox="0 0 46 46" fill="none" xmlns="http://www.w3.org/2000/svg">
<g clip-path="url(#clip0_190_122)">
<path d="M33.4893 13.3643L35.5107 15.3857L18.6875 32.209L10.4893 24.0107L12.5107 21.9893L18.6875 28.166L33.4893 13.3643ZM23 0C25.1113 0 27.1478 0.269531 29.1094 0.808594C31.071 1.34766 32.9053 2.11882 34.6123 3.12207C36.3193 4.12533 37.8691 5.32324 39.2617 6.71582C40.6543 8.1084 41.8522 9.66569 42.8555 11.3877C43.8587 13.1097 44.6299 14.944 45.1689 16.8906C45.708 18.8372 45.985 20.8737 46 23C46 25.1113 45.7305 27.1478 45.1914 29.1094C44.6523 31.071 43.8812 32.9053 42.8779 34.6123C41.8747 36.3193 40.6768 37.8691 39.2842 39.2617C37.8916 40.6543 36.3343 41.8522 34.6123 42.8555C32.8903 43.8587 31.056 44.6299 29.1094 45.1689C27.1628 45.708 25.1263 45.985 23 46C20.8887 46 18.8522 45.7305 16.8906 45.1914C14.929 44.6523 13.0947 43.8812 11.3877 42.8779C9.68066 41.8747 8.13086 40.6768 6.73828 39.2842C5.3457 37.8916 4.14779 36.3343 3.14453 34.6123C2.14128 32.8903 1.37012 31.0635 0.831055 29.1318C0.291992 27.2002 0.014974 25.1562 0 23C0 20.8887 0.269531 18.8522 0.808594 16.8906C1.34766 14.929 2.11882 13.0947 3.12207 11.3877C4.12533 9.68066 5.32324 8.13086 6.71582 6.73828C8.1084 5.3457 9.66569 4.14779 11.3877 3.14453C13.1097 2.14128 14.9365 1.37012 16.8682 0.831055C18.7998 0.291992 20.8438 0.014974 23 0ZM23 43.125C24.8418 43.125 26.6162 42.8854 28.3232 42.4062C30.0303 41.9271 31.6325 41.2533 33.1299 40.3848C34.6273 39.5163 35.9899 38.4606 37.2178 37.2178C38.4456 35.9749 39.4938 34.6198 40.3623 33.1523C41.2308 31.6849 41.9121 30.0827 42.4062 28.3457C42.9004 26.6087 43.14 24.8268 43.125 23C43.125 21.1582 42.8854 19.3838 42.4062 17.6768C41.9271 15.9697 41.2533 14.3675 40.3848 12.8701C39.5163 11.3727 38.4606 10.0101 37.2178 8.78223C35.9749 7.55436 34.6198 6.50619 33.1523 5.6377C31.6849 4.76921 30.0827 4.08789 28.3457 3.59375C26.6087 3.09961 24.8268 2.86003 23 2.875C21.1582 2.875 19.3838 3.11458 17.6768 3.59375C15.9697 4.07292 14.3675 4.74674 12.8701 5.61523C11.3727 6.48372 10.0101 7.53939 8.78223 8.78223C7.55436 10.0251 6.50619 11.3802 5.6377 12.8477C4.76921 14.3151 4.08789 15.9173 3.59375 17.6543C3.09961 19.3913 2.86003 21.1732 2.875 23C2.875 24.8418 3.11458 26.6162 3.59375 28.3232C4.07292 30.0303 4.74674 31.6325 5.61523 33.1299C6.48372 34.6273 7.53939 35.9899 8.78223 37.2178C10.0251 38.4456 11.3802 39.4938 12.8477 40.3623C14.3151 41.2308 15.9173 41.9121 17.6543 42.4062C19.3913 42.9004 21.1732 43.14 23 43.125Z" fill="white"/>
</g>
<defs>
<clipPath id="clip0_190_122">
<rect width="46" height="46" fill="white"/>
</clipPath>
</defs>
</svg>
