<svg width="55" height="55" viewBox="0 0 55 55" fill="none" xmlns="http://www.w3.org/2000/svg">
<path d="M28.7377 16.4198C29.8835 16.0486 30.8025 15.1754 31.2379 14.0594L40.9385 23.7623C40.3849 23.9796 39.8862 24.3166 39.4781 24.7493C39.0701 25.1819 38.7627 25.6995 38.5781 26.2648L28.7377 16.4198ZM38.5804 28.7375L28.7354 38.5802C29.8812 38.9515 30.8025 39.8246 31.2379 40.9406L40.9385 31.2377C40.3845 31.0211 39.8854 30.6843 39.4773 30.2516C39.0691 29.8188 38.762 29.3009 38.5781 28.7352M26.2627 38.5802L16.42 28.7352C16.0487 29.8811 15.1779 30.8023 14.0596 31.2377L23.7625 40.9383C24.1979 39.8223 25.1169 38.9515 26.265 38.5779M26.2627 16.4198L16.42 26.2648C16.2361 25.6991 15.929 25.1812 15.5208 24.7484C15.1127 24.3157 14.6136 23.9789 14.0596 23.7623L23.7625 14.0617C24.1979 15.1777 25.1169 16.0486 26.265 16.4221" fill="#006FFF"/>
<path fill-rule="evenodd" clip-rule="evenodd" d="M27.5 10.3125C26.8922 10.3125 26.3093 10.5539 25.8795 10.9837C25.4498 11.4135 25.2083 11.9964 25.2083 12.6042C25.2083 13.212 25.4498 13.7948 25.8795 14.2246C26.3093 14.6544 26.8922 14.8958 27.5 14.8958C28.1078 14.8958 28.6907 14.6544 29.1205 14.2246C29.5502 13.7948 29.7917 13.212 29.7917 12.6042C29.7917 11.9964 29.5502 11.4135 29.1205 10.9837C28.6907 10.5539 28.1078 10.3125 27.5 10.3125ZM21.7708 12.6042C21.7708 11.0847 22.3744 9.62746 23.4489 8.55303C24.5233 7.47861 25.9805 6.875 27.5 6.875C29.0195 6.875 30.4767 7.47861 31.5511 8.55303C32.6256 9.62746 33.2292 11.0847 33.2292 12.6042C33.2292 14.1236 32.6256 15.5809 31.5511 16.6553C30.4767 17.7297 29.0195 18.3333 27.5 18.3333C25.9805 18.3333 24.5233 17.7297 23.4489 16.6553C22.3744 15.5809 21.7708 14.1236 21.7708 12.6042ZM27.5 40.1042C26.8922 40.1042 26.3093 40.3456 25.8795 40.7754C25.4498 41.2052 25.2083 41.788 25.2083 42.3958C25.2083 43.0036 25.4498 43.5865 25.8795 44.0163C26.3093 44.4461 26.8922 44.6875 27.5 44.6875C28.1078 44.6875 28.6907 44.4461 29.1205 44.0163C29.5502 43.5865 29.7917 43.0036 29.7917 42.3958C29.7917 41.788 29.5502 41.2052 29.1205 40.7754C28.6907 40.3456 28.1078 40.1042 27.5 40.1042ZM21.7708 42.3958C21.7708 40.8764 22.3744 39.4191 23.4489 38.3447C24.5233 37.2703 25.9805 36.6667 27.5 36.6667C29.0195 36.6667 30.4767 37.2703 31.5511 38.3447C32.6256 39.4191 33.2292 40.8764 33.2292 42.3958C33.2292 43.9153 32.6256 45.3725 31.5511 46.447C30.4767 47.5214 29.0195 48.125 27.5 48.125C25.9805 48.125 24.5233 47.5214 23.4489 46.447C22.3744 45.3725 21.7708 43.9153 21.7708 42.3958ZM12.6042 25.2083C11.9964 25.2083 11.4135 25.4498 10.9837 25.8795C10.5539 26.3093 10.3125 26.8922 10.3125 27.5C10.3125 28.1078 10.5539 28.6907 10.9837 29.1205C11.4135 29.5502 11.9964 29.7917 12.6042 29.7917C13.212 29.7917 13.7948 29.5502 14.2246 29.1205C14.6544 28.6907 14.8958 28.1078 14.8958 27.5C14.8958 26.8922 14.6544 26.3093 14.2246 25.8795C13.7948 25.4498 13.212 25.2083 12.6042 25.2083ZM6.875 27.5C6.875 25.9805 7.47861 24.5233 8.55303 23.4489C9.62746 22.3744 11.0847 21.7708 12.6042 21.7708C14.1236 21.7708 15.5809 22.3744 16.6553 23.4489C17.7297 24.5233 18.3333 25.9805 18.3333 27.5C18.3333 29.0195 17.7297 30.4767 16.6553 31.5511C15.5809 32.6256 14.1236 33.2292 12.6042 33.2292C11.0847 33.2292 9.62746 32.6256 8.55303 31.5511C7.47861 30.4767 6.875 29.0195 6.875 27.5ZM42.3958 25.2083C41.788 25.2083 41.2052 25.4498 40.7754 25.8795C40.3456 26.3093 40.1042 26.8922 40.1042 27.5C40.1042 28.1078 40.3456 28.6907 40.7754 29.1205C41.2052 29.5502 41.788 29.7917 42.3958 29.7917C43.0036 29.7917 43.5865 29.5502 44.0163 29.1205C44.4461 28.6907 44.6875 28.1078 44.6875 27.5C44.6875 26.8922 44.4461 26.3093 44.0163 25.8795C43.5865 25.4498 43.0036 25.2083 42.3958 25.2083ZM36.6667 27.5C36.6667 25.9805 37.2703 24.5233 38.3447 23.4489C39.4191 22.3744 40.8764 21.7708 42.3958 21.7708C43.9153 21.7708 45.3725 22.3744 46.447 23.4489C47.5214 24.5233 48.125 25.9805 48.125 27.5C48.125 29.0195 47.5214 30.4767 46.447 31.5511C45.3725 32.6256 43.9153 33.2292 42.3958 33.2292C40.8764 33.2292 39.4191 32.6256 38.3447 31.5511C37.2703 30.4767 36.6667 29.0195 36.6667 27.5Z" fill="#006FFF"/>
</svg>
