<svg width="55" height="55" viewBox="0 0 55 55" fill="none" xmlns="http://www.w3.org/2000/svg">
<path d="M13.7466 18.9062C13.7466 17.9946 14.1088 17.1202 14.7535 16.4756C15.3981 15.8309 16.2725 15.4688 17.1841 15.4688H37.8091C38.7208 15.4688 39.5952 15.8309 40.2398 16.4756C40.8845 17.1202 41.2466 17.9946 41.2466 18.9062V24.0625C41.2466 24.9742 40.8845 25.8485 40.2398 26.4932C39.5952 27.1378 38.7208 27.5 37.8091 27.5H17.1841C16.2725 27.5 15.3981 27.1378 14.7535 26.4932C14.1088 25.8485 13.7466 24.9742 13.7466 24.0625V18.9062ZM37.8091 18.9062H17.1841V24.0625H37.8091V18.9062ZM32.6529 30.9375C31.7412 30.9375 30.8669 31.2997 30.2222 31.9443C29.5776 32.589 29.2154 33.4633 29.2154 34.375V37.8125C29.2154 38.7242 29.5776 39.5985 30.2222 40.2432C30.8669 40.8878 31.7412 41.25 32.6529 41.25H37.8091C38.7208 41.25 39.5952 40.8878 40.2398 40.2432C40.8845 39.5985 41.2466 38.7242 41.2466 37.8125V34.375C41.2466 33.4633 40.8845 32.589 40.2398 31.9443C39.5952 31.2997 38.7208 30.9375 37.8091 30.9375H32.6529ZM32.6529 34.375H37.8091V37.8125H32.6529V34.375ZM13.7466 32.6562C13.7466 32.2004 13.9277 31.7632 14.2501 31.4409C14.5724 31.1186 15.0096 30.9375 15.4654 30.9375H24.0591C24.515 30.9375 24.9522 31.1186 25.2745 31.4409C25.5968 31.7632 25.7779 32.2004 25.7779 32.6562C25.7779 33.1121 25.5968 33.5493 25.2745 33.8716C24.9522 34.1939 24.515 34.375 24.0591 34.375H15.4654C15.0096 34.375 14.5724 34.1939 14.2501 33.8716C13.9277 33.5493 13.7466 33.1121 13.7466 32.6562ZM15.4654 37.8125C15.0096 37.8125 14.5724 37.9936 14.2501 38.3159C13.9277 38.6382 13.7466 39.0754 13.7466 39.5312C13.7466 39.9871 13.9277 40.4243 14.2501 40.7466C14.5724 41.0689 15.0096 41.25 15.4654 41.25H24.0591C24.515 41.25 24.9522 41.0689 25.2745 40.7466C25.5968 40.4243 25.7779 39.9871 25.7779 39.5312C25.7779 39.0754 25.5968 38.6382 25.2745 38.3159C24.9522 37.9936 24.515 37.8125 24.0591 37.8125H15.4654ZM15.4551 6.875C13.1759 6.875 10.99 7.78041 9.37838 9.39205C7.76674 11.0037 6.86133 13.1895 6.86133 15.4688V39.5312C6.86133 41.8105 7.76674 43.9963 9.37838 45.6079C10.99 47.2196 13.1759 48.125 15.4551 48.125H39.5176C41.7968 48.125 43.9826 47.2196 45.5943 45.6079C47.2059 43.9963 48.1113 41.8105 48.1113 39.5312V15.4688C48.1113 13.1895 47.2059 11.0037 45.5943 9.39205C43.9826 7.78041 41.7968 6.875 39.5176 6.875H15.4551ZM10.2988 15.4688C10.2988 14.1012 10.8421 12.7897 11.8091 11.8227C12.776 10.8557 14.0876 10.3125 15.4551 10.3125H39.5176C40.8851 10.3125 42.1966 10.8557 43.1636 11.8227C44.1306 12.7897 44.6738 14.1012 44.6738 15.4688V39.5312C44.6738 40.8988 44.1306 42.2103 43.1636 43.1773C42.1966 44.1443 40.8851 44.6875 39.5176 44.6875H15.4551C14.0876 44.6875 12.776 44.1443 11.8091 43.1773C10.8421 42.2103 10.2988 40.8988 10.2988 39.5312V15.4688Z" fill="#006FFF"/>
</svg>
