<svg width="41" height="41" viewBox="0 0 41 41" fill="none" xmlns="http://www.w3.org/2000/svg">
<path fill-rule="evenodd" clip-rule="evenodd" d="M38.3094 9.44025L22.1323 22.837C21.6726 23.2179 21.0944 23.4263 20.4974 23.4263C19.9005 23.4263 19.3222 23.2179 18.8626 22.837L2.69319 9.44025C2.60643 9.7014 2.5623 9.97482 2.5625 10.25V30.75C2.5625 31.4296 2.83248 32.0814 3.31304 32.562C3.7936 33.0425 4.44538 33.3125 5.125 33.3125H35.875C36.5546 33.3125 37.2064 33.0425 37.687 32.562C38.1675 32.0814 38.4375 31.4296 38.4375 30.75V10.25C38.4385 9.97496 38.3953 9.70154 38.3094 9.44025ZM5.125 5.125H35.875C37.2342 5.125 38.5378 5.66495 39.4989 6.62608C40.46 7.5872 41 8.89077 41 10.25V30.75C41 32.1092 40.46 33.4128 39.4989 34.3739C38.5378 35.335 37.2342 35.875 35.875 35.875H5.125C3.76577 35.875 2.4622 35.335 1.50108 34.3739C0.539954 33.4128 0 32.1092 0 30.75V10.25C0 8.89077 0.539954 7.5872 1.50108 6.62608C2.4622 5.66495 3.76577 5.125 5.125 5.125ZM4.58687 7.6875L18.8754 19.4827C19.333 19.8607 19.9076 20.0681 20.5012 20.0695C21.0947 20.0709 21.6703 19.8662 22.1297 19.4904L36.5617 7.6875H4.58687Z" fill="#006FFF"/>
</svg>
