<svg width="55" height="55" viewBox="0 0 55 55" fill="none" xmlns="http://www.w3.org/2000/svg">
<path d="M47.3945 44.5586L40.6055 36.2441C43.7852 31.0234 44.5586 24.6855 42.7109 18.7558C42.5391 18.1972 41.9375 17.8965 41.3789 18.0683C40.8203 18.2402 40.498 18.8418 40.6914 19.4004C42.4316 24.9433 41.6152 30.873 38.4355 35.707L38.3711 35.7929C38.1562 36.1797 38.1777 36.6523 38.457 36.9961L45.7402 45.8906C45.7402 45.8906 45.8477 46.0195 45.8691 46.0195C46.4707 46.707 46.4707 47.6738 45.8906 48.3828C45.8691 48.4043 45.8691 48.4258 45.8477 48.4258L45.6973 48.5761C45.0098 49.1562 44 49.1562 43.291 48.5332C43.248 48.4902 43.2266 48.4687 43.1836 48.4258L34.2891 41.164C33.9238 40.8633 33.4082 40.8418 33.0215 41.0996L32.9355 41.164C25.4375 46.0625 15.4043 45.0742 9.00195 38.8008C8.95898 38.7363 8.9375 38.6718 8.89453 38.6289C1.41797 31.1953 1.41797 19.0566 8.87305 11.6015C16.3281 4.14646 28.4668 4.14646 35.9219 11.6015C35.9648 11.6445 36.0293 11.6875 36.0938 11.709C36.1152 11.7304 36.1582 11.7734 36.1797 11.7949C36.5449 12.2461 37.2324 12.3105 37.6836 11.9238C38.1348 11.5586 38.1992 10.8711 37.8125 10.4199C37.7266 10.3125 37.5977 10.1836 37.4687 10.0547C29.1973 1.80466 15.7266 1.74021 7.39062 9.99021C7.36914 10.0117 7.32617 10.0332 7.30469 10.0761C3.86719 13.5136 1.71875 18.0898 1.22461 22.9238C1.00976 25.0293 1.11719 27.1347 1.50391 29.1758C2.32031 33.3652 4.33984 37.1679 7.36914 40.1972C14.3086 47.1152 25.2012 48.3828 33.5371 43.3125L41.7871 50.0586C41.8301 50.1015 41.8945 50.166 41.9375 50.209C42.6894 50.8535 43.5918 51.1543 44.4941 51.1543C45.418 51.1543 46.3418 50.832 47.0937 50.1875L47.459 49.8437C47.5234 49.7793 47.5664 49.7148 47.6094 49.6289C48.748 48.1465 48.7051 46.084 47.4805 44.6445C47.459 44.623 47.416 44.5801 47.3945 44.5586Z" fill="white"/>
<path d="M53.668 4.49024C53.4532 4.18946 53.0879 4.01758 52.7012 4.06055L45.8047 4.79102C45.418 4.83399 45.0957 5.07032 44.9453 5.41407C44.7949 5.75782 44.8379 6.16602 45.0528 6.4668L46.5782 8.55078L22.3438 26.0176C22.086 26.1895 21.9356 26.4902 21.9141 26.791L21.2696 35.0625L10.7852 24.8145C10.5703 24.5996 10.2696 24.4922 9.96878 24.5137L6.89651 24.7285C6.31643 24.7715 5.86526 25.2656 5.90823 25.8672C5.9512 26.4473 6.46682 26.8984 7.0469 26.8555L9.64651 26.6836L21.4199 38.1777C21.6133 38.3711 21.8926 38.4785 22.1719 38.4785C22.3008 38.4785 22.4297 38.457 22.5371 38.4141C22.9239 38.2637 23.1817 37.9199 23.2246 37.5117L24.0196 27.4785L47.8887 10.3125L49.1992 12.1172C49.3926 12.3965 49.7149 12.5469 50.0586 12.5469C50.1016 12.5469 50.1446 12.5469 50.166 12.5469C50.5528 12.5039 50.875 12.2676 51.0254 11.9238L53.8184 5.58594C53.9473 5.19922 53.9043 4.8125 53.668 4.49024ZM49.8008 9.34571L47.8887 6.72461L51.1114 6.38086L49.8008 9.34571Z" fill="white"/>
</svg>
