<svg width="55" height="55" viewBox="0 0 55 55" fill="none" xmlns="http://www.w3.org/2000/svg">
<path d="M46.4062 3.4375H8.59375C5.7475 3.4375 3.4375 5.7475 3.4375 8.59375V46.4062C3.4375 49.2525 5.7475 51.5625 8.59375 51.5625H46.4062C49.2525 51.5625 51.5625 49.2525 51.5625 46.4062V8.59375C51.5625 5.7475 49.2525 3.4375 46.4062 3.4375ZM17.0809 41.3033C16.796 41.796 16.3271 42.1554 15.7772 42.3024C15.2273 42.4494 14.6415 42.3719 14.1488 42.087C13.656 41.8021 13.2966 41.3331 13.1496 40.7833C13.0026 40.2334 13.0801 39.6476 13.365 39.1548L14.9016 36.5011C16.6306 35.9752 18.0486 36.3825 19.1555 37.7248L17.0809 41.3033ZM32.0014 35.5145H12.4609C11.2784 35.5145 10.3125 34.5469 10.3125 33.3661C10.3125 32.1853 11.2802 31.2177 12.4609 31.2177H17.9403L24.9648 19.0575L22.7631 15.2556C22.4798 14.7625 22.4031 14.1773 22.55 13.6278C22.6969 13.0784 23.0553 12.6094 23.5469 12.3234C24.04 12.0401 24.6252 11.9635 25.1747 12.1103C25.7241 12.2572 26.1931 12.6156 26.4791 13.1072L27.4347 14.7606L28.3903 13.1072C28.5314 12.8632 28.7191 12.6494 28.9428 12.4779C29.1665 12.3065 29.4218 12.1808 29.6941 12.108C29.9664 12.0353 30.2503 12.0168 30.5297 12.0538C30.8091 12.0907 31.0785 12.1824 31.3225 12.3234C31.5665 12.4645 31.7803 12.6523 31.9517 12.876C32.1232 13.0997 32.2489 13.3549 32.3217 13.6272C32.3944 13.8995 32.4129 14.1834 32.3759 14.4628C32.3389 14.7422 32.2473 15.0116 32.1063 15.2556L22.8903 31.2194H29.5608C31.7298 31.2194 32.945 33.7648 31.9997 35.5163L32.0014 35.5145ZM42.5391 35.5145H39.423L41.5284 39.1566C42.1197 40.1878 41.7639 41.4992 40.7447 42.0888C39.7134 42.68 38.402 42.3242 37.8125 41.305C34.2787 35.1931 31.6353 30.5955 29.8633 27.5447C28.0689 24.4286 29.3477 21.3142 30.6264 20.2623C32.0341 22.7013 34.1395 26.3536 36.9531 31.2194H42.5391C43.1089 31.2194 43.6553 31.4457 44.0582 31.8486C44.4611 32.2515 44.6875 32.798 44.6875 33.3678C44.6875 33.9376 44.4611 34.4841 44.0582 34.887C43.6553 35.2899 43.1089 35.5145 42.5391 35.5145Z" fill="white"/>
</svg>
