<svg width="55" height="55" viewBox="0 0 55 55" fill="none" xmlns="http://www.w3.org/2000/svg">
<path d="M17.1875 2.19995C13.7947 2.19995 11 5.05674 11 8.52495V46.475C11 49.9432 13.7947 52.7999 17.1875 52.7999H37.8125C41.2053 52.7999 44 49.9432 44 46.475V8.52495C44 5.05674 41.2053 2.19995 37.8125 2.19995H17.1875ZM17.1875 6.41662H37.8125C38.9572 6.41662 39.875 7.35483 39.875 8.52495V46.475C39.875 47.6451 38.9572 48.5833 37.8125 48.5833H17.1875C16.0428 48.5833 15.125 47.6451 15.125 46.475V8.52495C15.125 7.35483 16.0428 6.41662 17.1875 6.41662ZM27.5 42.2583C26.3656 42.2583 25.4375 43.207 25.4375 44.3666C25.4375 45.5262 26.3656 46.475 27.5 46.475C28.6344 46.475 29.5625 45.5262 29.5625 44.3666C29.5625 43.207 28.6344 42.2583 27.5 42.2583Z" fill="white"/>
</svg>
