<svg width="55" height="55" viewBox="0 0 55 55" fill="none" xmlns="http://www.w3.org/2000/svg">
<path d="M17.1875 2.20001C13.7947 2.20001 11 5.0568 11 8.52501V46.475C11 49.9432 13.7947 52.8 17.1875 52.8H37.8125C41.2053 52.8 44 49.9432 44 46.475V8.52501C44 5.0568 41.2053 2.20001 37.8125 2.20001H17.1875ZM17.1875 6.41668H37.8125C38.9572 6.41668 39.875 7.35489 39.875 8.52501V46.475C39.875 47.6451 38.9572 48.5833 37.8125 48.5833H17.1875C16.0428 48.5833 15.125 47.6451 15.125 46.475V8.52501C15.125 7.35489 16.0428 6.41668 17.1875 6.41668ZM27.5 42.2583C26.3656 42.2583 25.4375 43.2071 25.4375 44.3667C25.4375 45.5263 26.3656 46.475 27.5 46.475C28.6344 46.475 29.5625 45.5263 29.5625 44.3667C29.5625 43.2071 28.6344 42.2583 27.5 42.2583Z" fill="#006FFF"/>
</svg>
