<svg width="54" height="54" viewBox="0 0 54 54" fill="none" xmlns="http://www.w3.org/2000/svg">
<path fill-rule="evenodd" clip-rule="evenodd" d="M27 2.81256C22.887 2.81256 19.4872 3.17481 16.8705 3.61581L16.569 3.66756C14.2965 4.04781 12.4065 4.36505 10.9282 6.18305C9.98325 7.3508 9.675 8.61306 9.60525 10.0193L8.49825 10.3883C7.4565 10.7348 6.54075 11.0408 5.8185 11.3783C5.0355 11.7428 4.31775 12.2108 3.76875 12.9736C3.21975 13.7341 3.0015 14.5643 2.9025 15.4216C2.8125 16.2158 2.8125 17.1766 2.8125 18.2768V18.6031C2.8125 19.5076 2.8125 20.3063 2.88 20.9746C2.952 21.6968 3.11175 22.4011 3.51 23.0806C3.91275 23.7623 4.44825 24.2438 5.04675 24.6578C5.598 25.0403 6.2955 25.4296 7.0875 25.8683L13.0275 29.1691C14.2425 31.5563 15.9097 33.6848 18.2025 35.2216C20.1982 36.5626 22.5945 37.4041 25.4318 37.6268C25.3528 37.8251 25.3124 38.0366 25.3125 38.2501V42.1876H22.095C21.1847 42.1876 20.3025 42.503 19.5986 43.0802C18.8946 43.6574 18.4124 44.4607 18.234 45.3533L17.7413 47.8126H13.5C13.0524 47.8126 12.6232 47.9903 12.3068 48.3068C11.9903 48.6233 11.8125 49.0525 11.8125 49.5001C11.8125 49.9476 11.9903 50.3768 12.3068 50.6933C12.6232 51.0098 13.0524 51.1876 13.5 51.1876H40.5C40.9476 51.1876 41.3768 51.0098 41.6932 50.6933C42.0097 50.3768 42.1875 49.9476 42.1875 49.5001C42.1875 49.0525 42.0097 48.6233 41.6932 48.3068C41.3768 47.9903 40.9476 47.8126 40.5 47.8126H36.2588L35.766 45.3533C35.5876 44.4607 35.1054 43.6574 34.4014 43.0802C33.6975 42.503 32.8153 42.1876 31.905 42.1876H28.6875V38.2501C28.6876 38.0366 28.6472 37.8251 28.5682 37.6268C31.4055 37.4018 33.8018 36.5626 35.7975 35.2238C38.0925 33.6848 39.7575 31.5563 40.9725 29.1691L46.9125 25.8683C47.7045 25.4296 48.402 25.0403 48.9533 24.6578C49.5495 24.2438 50.0872 23.7623 50.4877 23.0828C50.8882 22.4011 51.0502 21.6968 51.12 20.9746C51.1875 20.3063 51.1875 19.5076 51.1875 18.6031V18.2768C51.1875 17.1788 51.1875 16.2158 51.0975 15.4216C50.9985 14.5643 50.7825 13.7341 50.2313 12.9736C49.6823 12.2108 48.9645 11.7428 48.1838 11.3761C47.457 11.0386 46.5435 10.7348 45.5017 10.3883L44.3948 10.0193C44.3273 8.61081 44.019 7.3508 43.0718 6.18305C41.5957 4.3628 39.7057 4.04555 37.4332 3.66756L37.1295 3.61581C33.7812 3.06692 30.393 2.79824 27 2.81256ZM32.8162 47.8126L32.4563 46.0148C32.4308 45.8873 32.3619 45.7726 32.2614 45.6902C32.1609 45.6077 32.035 45.5626 31.905 45.5626H22.095C21.965 45.5626 21.8391 45.6077 21.7386 45.6902C21.6381 45.7726 21.5692 45.8873 21.5437 46.0148L21.1838 47.8126H32.8162ZM9.648 13.5631L9.6795 13.5518C9.8415 16.9718 10.2263 20.7518 11.1892 24.2843L8.79075 22.9546C7.9155 22.4663 7.3665 22.1603 6.9705 21.8858C6.606 21.6316 6.48675 21.4808 6.4215 21.3683C6.354 21.2558 6.282 21.0803 6.237 20.6393C6.1893 19.9369 6.17278 19.2327 6.1875 18.5288V18.3646C6.1875 17.1518 6.18975 16.3846 6.255 15.8041C6.318 15.2686 6.417 15.0683 6.507 14.9468C6.59475 14.8231 6.75225 14.6656 7.2405 14.4383C7.7715 14.1908 8.5005 13.9478 9.648 13.5631ZM44.3205 13.5496C44.1608 16.9696 43.7738 20.7496 42.813 24.2821L45.2093 22.9523C46.0845 22.4641 46.6335 22.1581 47.0295 21.8836C47.394 21.6293 47.5132 21.4786 47.5785 21.3661C47.646 21.2536 47.718 21.0781 47.763 20.6371C47.8103 20.1556 47.8125 19.5278 47.8125 18.5266V18.3623C47.8125 17.1496 47.8102 16.3823 47.745 15.8018C47.682 15.2663 47.583 15.0661 47.493 14.9446C47.4053 14.8208 47.2477 14.6633 46.7595 14.4361C46.2285 14.1886 45.4995 13.9433 44.352 13.5586L44.3205 13.5496ZM17.433 6.94355C20.5955 6.42614 23.7955 6.17326 27 6.18756C30.915 6.18756 34.1258 6.53181 36.567 6.94355C39.2828 7.40255 39.852 7.57355 40.4528 8.31155C41.0423 9.03606 41.0985 9.72455 40.977 12.7733C40.7745 17.8538 40.104 23.3393 38.0295 27.5108C37.0035 29.5673 35.6625 31.2503 33.9187 32.4203C32.184 33.5836 29.9452 34.3126 27 34.3126C24.0548 34.3126 21.8182 33.5836 20.0835 32.4203C18.3375 31.2503 16.9965 29.5673 15.9727 27.5086C13.896 23.3393 13.2277 17.8561 13.0253 12.7711C12.9038 9.72456 12.9577 9.03606 13.5495 8.31155C14.148 7.57355 14.7172 7.40255 17.433 6.94355Z" fill="#006FFF"/>
</svg>
