<svg width="106" height="106" viewBox="0 0 106 106" fill="none" xmlns="http://www.w3.org/2000/svg">
<g clip-path="url(#clip0_187_43)">
<path fill-rule="evenodd" clip-rule="evenodd" d="M11.2814 29.3544C11.1591 28.6186 10.8931 27.9141 10.4985 27.2812C10.104 26.6482 9.58862 26.0991 8.98187 25.6653C8.37512 25.2316 7.68886 24.9215 6.96229 24.7529C6.23572 24.5844 5.48306 24.5605 4.74728 24.6828C4.0115 24.8051 3.30702 25.0711 2.67405 25.4657C2.04108 25.8603 1.49203 26.3756 1.05823 26.9824C0.624435 27.5891 0.314396 28.2754 0.145815 29.002C-0.0227662 29.7285 -0.0465877 30.4812 0.0757105 31.217L3.86142 53.9313C4.10842 55.4172 4.93559 56.7442 6.16098 57.6203C7.38637 58.4964 8.9096 58.8498 10.3956 58.6028C11.8815 58.3558 13.2085 57.5287 14.0846 56.3033C14.9607 55.0779 15.3141 53.5547 15.0671 52.0687L11.2814 29.3544ZM30.21 29.3544C30.0877 28.6186 29.8217 27.9141 29.4271 27.2812C29.0326 26.6482 28.5172 26.0991 27.9104 25.6653C27.3037 25.2316 26.6174 24.9215 25.8909 24.7529C25.1643 24.5844 24.4116 24.5605 23.6759 24.6828C22.9401 24.8051 22.2356 25.0711 21.6026 25.4657C20.9697 25.8603 20.4206 26.3756 19.9868 26.9824C19.553 27.5891 19.243 28.2754 19.0744 29.002C18.9058 29.7285 18.882 30.4812 19.0043 31.217L22.79 53.9313C23.037 55.4172 23.8642 56.7442 25.0896 57.6203C25.6963 58.0541 26.3826 58.3641 27.1091 58.5327C27.8357 58.7013 28.5884 58.7251 29.3241 58.6028C30.0599 58.4805 30.7644 58.2145 31.3974 57.82C32.0303 57.4254 32.5794 56.91 33.0132 56.3033C33.447 55.6965 33.757 55.0103 33.9256 54.2837C34.0942 53.5571 34.118 52.8045 33.9957 52.0687L30.21 29.3544ZM84.217 47.3971C84.9528 47.5193 85.6574 47.7852 86.2905 48.1797C86.9235 48.5742 87.4726 49.0896 87.9064 49.6964C88.3403 50.3032 88.6503 50.9895 88.8188 51.7161C88.9873 52.4427 89.011 53.1955 88.8886 53.9313L85.1029 76.6455C84.8559 78.1315 84.0287 79.4585 82.8033 80.3346C81.5779 81.2107 80.0547 81.5641 78.5687 81.3171C77.0827 81.0701 75.7558 80.2429 74.8797 79.0176C74.0036 77.7922 73.6501 76.2689 73.8971 74.783L77.6829 52.0687C77.805 51.3328 78.0709 50.6283 78.4655 49.9952C78.86 49.3622 79.3754 48.8131 79.9821 48.3792C80.5889 47.9454 81.2752 47.6354 82.0019 47.4669C82.7285 47.2984 83.4812 47.2747 84.217 47.3971ZM105.924 53.9313C106.047 53.1955 106.023 52.4428 105.854 51.7162C105.686 50.9897 105.376 50.3034 104.942 49.6967C104.508 49.0899 103.959 48.5746 103.326 48.18C102.693 47.7854 101.988 47.5194 101.253 47.3971C100.517 47.2748 99.7643 47.2986 99.0377 47.4672C98.3111 47.6358 97.6249 47.9458 97.0181 48.3796C96.4114 48.8134 95.896 49.3625 95.5014 49.9955C95.1069 50.6284 94.8409 51.3329 94.7186 52.0687L90.9329 74.783C90.8106 75.5187 90.8344 76.2714 91.003 76.998C91.1715 77.7246 91.4816 78.4108 91.9154 79.0176C92.7915 80.2429 94.1185 81.0701 95.6044 81.3171C97.0904 81.5641 98.6136 81.2107 99.839 80.3346C101.064 79.4585 101.892 78.1315 102.139 76.6455L105.924 53.9313Z" fill="#006FFF"/>
</g>
<defs>
<clipPath id="clip0_187_43">
<rect width="106" height="106" fill="white"/>
</clipPath>
</defs>
</svg>
