<svg width="55" height="55" viewBox="0 0 55 55" fill="none" xmlns="http://www.w3.org/2000/svg">
<path d="M18.3332 6.875C14.0787 6.875 9.9984 8.5651 6.99 11.5735C3.9816 14.5819 2.2915 18.6622 2.2915 22.9167C2.2915 27.1712 3.9816 31.2514 6.99 34.2598C9.9984 37.2682 14.0787 38.9583 18.3332 38.9583H20.7853C20.5659 37.4384 20.5659 35.8949 20.7853 34.375H18.3332C15.2942 34.375 12.3798 33.1678 10.2309 31.0189C8.08205 28.8701 6.87484 25.9556 6.87484 22.9167C6.87484 19.8777 8.08205 16.9633 10.2309 14.8144C12.3798 12.6655 15.2942 11.4583 18.3332 11.4583H36.6665C38.3658 11.458 40.0439 11.8356 41.5793 12.5638C43.1147 13.2921 44.4688 14.3527 45.5437 15.6689C46.6186 16.985 47.3872 18.5238 47.794 20.1737C48.2008 21.8236 48.2355 23.5434 47.8957 25.2083C49.2466 26.5316 50.3529 28.0832 51.1636 29.7917C52.3235 27.3463 52.8459 24.6472 52.6821 21.9457C52.5182 19.2441 51.6735 16.6279 50.2266 14.3406C48.7797 12.0534 46.7776 10.1694 44.4066 8.86402C42.0357 7.55868 39.373 6.87444 36.6665 6.875H18.3332ZM36.6665 29.7917C34.8431 29.7917 33.0945 30.516 31.8051 31.8053C30.5158 33.0946 29.7915 34.8433 29.7915 36.6667C29.7915 38.49 30.5158 40.2387 31.8051 41.528C33.0945 42.8173 34.8431 43.5417 36.6665 43.5417C38.4899 43.5417 40.2386 42.8173 41.5279 41.528C42.8172 40.2387 43.5415 38.49 43.5415 36.6667C43.5415 34.8433 42.8172 33.0946 41.5279 31.8053C40.2386 30.516 38.4899 29.7917 36.6665 29.7917ZM25.2082 36.6667C25.2086 34.8801 25.6268 33.1184 26.4293 31.5222C27.2319 29.9261 28.3965 28.5397 29.8303 27.4738C31.264 26.4079 32.9272 25.6921 34.6868 25.3834C36.4465 25.0747 38.254 25.1818 39.965 25.6961C41.6759 26.2104 43.2429 27.1176 44.5407 28.3454C45.8386 29.5731 46.8314 31.0873 47.4398 32.7671C48.0483 34.4468 48.2555 36.2456 48.045 38.0197C47.8345 39.7938 47.212 41.4941 46.2273 42.9848L52.0367 48.7965L48.7963 52.0369L42.9846 46.2275C41.2575 47.369 39.2534 48.0213 37.1853 48.1151C35.1172 48.2088 33.0623 47.7405 31.239 46.7599C29.4157 45.7792 27.8922 44.3229 26.8303 42.5458C25.7684 40.7686 25.2078 38.7369 25.2082 36.6667Z" fill="#006FFF"/>
</svg>
