<svg width="54" height="54" viewBox="0 0 54 54" fill="none" xmlns="http://www.w3.org/2000/svg">
<path d="M49.4395 44.2969C46.5475 39.2211 42.0316 35.2661 36.6188 33.0687C39.3105 31.0498 41.2988 28.2353 42.3021 25.0237C43.3053 21.812 43.2726 18.3661 42.2086 15.1741C41.1446 11.9821 39.1032 9.20579 36.3737 7.23843C33.6441 5.27106 30.3647 4.2124 27 4.2124C23.6353 4.2124 20.3559 5.27106 17.6264 7.23843C14.8968 9.20579 12.8554 11.9821 11.7914 15.1741C10.7274 18.3661 10.6947 21.812 11.698 25.0237C12.7012 28.2353 14.6895 31.0498 17.3813 33.0687C11.9684 35.2661 7.45253 39.2211 4.56049 44.2969C4.38128 44.585 4.26185 44.9062 4.20928 45.2415C4.1567 45.5767 4.17207 45.9191 4.25446 46.2482C4.33685 46.5774 4.48458 46.8867 4.68888 47.1576C4.89317 47.4285 5.14986 47.6556 5.44367 47.8254C5.73748 47.9951 6.06243 48.1041 6.39918 48.1457C6.73594 48.1874 7.07764 48.1609 7.40396 48.0679C7.73029 47.9749 8.03457 47.8172 8.29873 47.6042C8.56289 47.3912 8.78153 47.1273 8.94166 46.8281C12.7638 40.2215 19.5138 36.2812 27 36.2812C34.4862 36.2812 41.2362 40.2237 45.0584 46.8281C45.4054 47.3861 45.9558 47.7873 46.5932 47.9468C47.2307 48.1064 47.9052 48.0118 48.4741 47.6831C49.0431 47.3543 49.4619 46.8172 49.6421 46.1853C49.8223 45.5534 49.7496 44.8762 49.4395 44.2969ZM16.0313 20.25C16.0313 18.0806 16.6746 15.9599 17.8798 14.1561C19.0851 12.3523 20.7982 10.9464 22.8025 10.1162C24.8067 9.28598 27.0122 9.06876 29.1399 9.49199C31.2676 9.91522 33.2221 10.9599 34.7561 12.4939C36.2901 14.0279 37.3348 15.9824 37.758 18.1101C38.1812 20.2378 37.964 22.4433 37.1338 24.4475C36.3036 26.4518 34.8977 28.1649 33.0939 29.3702C31.2901 30.5754 29.1694 31.2187 27 31.2187C24.092 31.2154 21.304 30.0587 19.2476 28.0024C17.1913 25.946 16.0346 23.158 16.0313 20.25Z" fill="#006FFF"/>
</svg>
