<svg width="68" height="68" viewBox="0 0 68 68" fill="none" xmlns="http://www.w3.org/2000/svg">
<path d="M28.3334 62.3334C17.6489 62.3334 12.3052 62.3333 8.98741 59.0127C5.66675 55.6948 5.66675 53.1845 5.66675 42.5M62.3334 42.5C62.3334 53.1845 62.3334 55.6948 59.0127 59.0127C55.6949 62.3333 50.3512 62.3334 39.6667 62.3334M39.6667 5.66669C50.3512 5.66669 55.6949 5.66669 59.0127 8.98735C62.3334 12.3052 62.3334 14.8155 62.3334 25.5M28.3334 5.66669C17.6489 5.66669 12.3052 5.66669 8.98741 8.98735C5.66675 12.3052 5.66675 14.8155 5.66675 25.5" stroke="#006FFF" stroke-width="5" stroke-linecap="round"/>
<path d="M16.6941 39.8367C15.0082 37.8817 14.1667 36.9042 14.1667 34C14.1667 31.0959 15.0082 30.1184 16.6941 28.1634C20.0601 24.259 25.7041 19.8334 34.0001 19.8334C42.2932 19.8334 47.9401 24.259 51.3061 28.1634C52.9919 30.1184 53.8334 31.0959 53.8334 34C53.8334 36.9042 52.9919 37.8817 51.3061 39.8367C47.9401 43.741 42.2961 48.1667 34.0001 48.1667C25.7069 48.1667 20.0601 43.741 16.6941 39.8367Z" stroke="#006FFF" stroke-width="5"/>
<path d="M34.0002 39.6667C37.1298 39.6667 39.6668 37.1297 39.6668 34C39.6668 30.8704 37.1298 28.3334 34.0002 28.3334C30.8705 28.3334 28.3335 30.8704 28.3335 34C28.3335 37.1297 30.8705 39.6667 34.0002 39.6667Z" stroke="#006FFF" stroke-width="5"/>
</svg>
