<svg width="55" height="55" viewBox="0 0 55 55" fill="none" xmlns="http://www.w3.org/2000/svg">
<path d="M5.15625 18.9062H49.8438" stroke="white" stroke-width="2" stroke-miterlimit="10" stroke-linecap="round" stroke-linejoin="round"/>
<path d="M12.0312 15.4688C11.5156 15.4688 11.1719 15.2969 10.8281 14.9531C10.4844 14.6094 10.3125 14.2656 10.3125 13.75C10.3125 13.2344 10.4844 12.8906 10.8281 12.5469L11 12.375C11.1719 12.375 11.1719 12.2031 11.3437 12.2031C11.5156 12.0312 11.5156 12.0312 11.6875 12.0312C11.8594 12.0312 12.2031 12.0312 12.375 12.0312C12.5469 12.0312 12.5469 12.0312 12.7188 12.2031C12.8906 12.2031 12.8906 12.375 13.0625 12.375L13.2344 12.5469C13.4062 12.7188 13.5781 12.8906 13.5781 13.0625C13.75 13.2344 13.75 13.5781 13.75 13.75C13.75 13.9219 13.75 14.2656 13.5781 14.4375C13.5781 14.6094 13.4062 14.7812 13.2344 14.9531C12.8906 15.2969 12.5469 15.4688 12.0312 15.4688Z" fill="white"/>
<path d="M17.1875 15.4688C16.6719 15.4688 16.3281 15.2969 15.9844 14.9531C15.6406 14.6094 15.4688 14.2656 15.4688 13.75C15.4688 13.5781 15.4688 13.2344 15.6406 13.0625C15.8125 12.8906 15.8125 12.7188 15.9844 12.5469C16.1563 12.375 16.3281 12.2031 16.5 12.2031C17.1875 11.8594 17.875 12.0313 18.3906 12.5469C18.5625 12.7188 18.7344 12.8906 18.7344 13.0625C18.9062 13.2344 18.9062 13.5781 18.9062 13.75C18.9062 14.2656 18.7344 14.6094 18.3906 14.9531C18.0469 15.2969 17.7031 15.4688 17.1875 15.4688Z" fill="white"/>
<path d="M22.3438 15.4687C22.1719 15.4687 21.8281 15.4687 21.6563 15.2969C21.4844 15.125 21.3125 15.125 21.1406 14.9531C20.9688 14.7812 20.7969 14.6094 20.7969 14.4375C20.625 14.2656 20.625 13.9219 20.625 13.75C20.625 13.5781 20.625 13.2344 20.7969 13.0625C20.9688 12.8906 20.9688 12.7188 21.1406 12.5469C21.8281 11.8594 22.8594 11.8594 23.5469 12.5469C23.7187 12.7188 23.8906 12.8906 23.8906 13.0625C24.0625 13.2344 24.0625 13.5781 24.0625 13.75C24.0625 13.9219 24.0625 14.2656 23.8906 14.4375C23.7187 14.6094 23.7187 14.7812 23.5469 14.9531C23.2031 15.2969 22.8594 15.4687 22.3438 15.4687Z" fill="white"/>
<path d="M46.4062 8.59375H8.59375C6.70312 8.59375 5.15625 10.1406 5.15625 12.0312V42.9688C5.15625 44.8594 6.70312 46.4062 8.59375 46.4062H46.4062C48.2969 46.4062 49.8438 44.8594 49.8438 42.9688V12.0312C49.8438 10.1406 48.2969 8.59375 46.4062 8.59375Z" stroke="white" stroke-width="2" stroke-miterlimit="10" stroke-linecap="round" stroke-linejoin="round"/>
<path d="M18.9062 27.5L13.75 32.6562L18.9062 37.8125" stroke="white" stroke-width="2" stroke-miterlimit="10" stroke-linecap="round" stroke-linejoin="round"/>
<path d="M36.0938 27.5L41.25 32.6562L36.0938 37.8125" stroke="white" stroke-width="2" stroke-miterlimit="10" stroke-linecap="round" stroke-linejoin="round"/>
<path d="M30.9375 25.7812L24.0625 39.5312" stroke="white" stroke-width="2" stroke-miterlimit="10" stroke-linecap="round" stroke-linejoin="round"/>
</svg>
